# xmcd CD database file
#
# Track frame offsets:
#	150
#	15722
#	29670
#	41660
#	53790
#	66109
#	80452
#	90739
#	104550
#	117448
#	130193
#	142213
#	155837
#	169427
#	184375
#	198357
#	211914
#	224136
#	236339
#	251317
#	265725
#
# Disc length: 3724 seconds
#
# Revision: 6
# Processed by: cddbd v1.5.2PL0 Copyright (c) Steve Scherf et al.
# Submitted via: CDex 1.51
#
DISCID=430e8a15
DTITLE=Glenn Miller - Vol.10 - In The Mood
DYEAR=1900
DGENRE=Jazz
TTITLE0=Serenade In Blue
TTITLE1=At Last
TTITLE2=Lullaby Of The Rain
TTITLE3=Knit One, Purl Two
TTITLE4=That's Sabotage
TTITLE5=Conchita, Marquita, Lolita, Pepita, Rosita, Juanita Lopez
TTITLE6=The Humming Bird
TTITLE7=Yesterday's Gardenias
TTITLE8=Dearly Beloved
TTITLE9=Moonlight Mood
TTITLE10=Caribbean Clipper
TTITLE11=Here We Go Again
TTITLE12=That Old Black Magic
TTITLE13=Moonlight Becomes You
TTITLE14=Juke Box Saturday Night
TTITLE15=It Must Be Jelly  ('Cause Jam Don't Shake Like That)
TTITLE16=I'm Old Fashioned
TTITLE17=A Pink Cocktail For A Blue Lady
TTITLE18=Rainbow Rhapsody
TTITLE19=Sleepy Town Train
TTITLE20=Rhapsody In Blue
EXTD=Vol 10 of a 10 CD box\n\n(P) 2000 Trumpets Of Jericho Ltd.\n(C) 2000 TIM The International Music Company AG\n\nOder No. 204280\n
EXTT0=
EXTT1=
EXTT2=
EXTT3=
EXTT4=
EXTT5=
EXTT6=
EXTT7=
EXTT8=
EXTT9=
EXTT10=
EXTT11=
EXTT12=
EXTT13=
EXTT14=
EXTT15=
EXTT16=
EXTT17=
EXTT18=
EXTT19=
EXTT20=George Gershwin\n
PLAYORDER=
